<?xml version="1.0" encoding="UTF-8"?>
<svg id="Layer_1" data-name="Layer 1" xmlns="http://www.w3.org/2000/svg" xmlns:xlink="http://www.w3.org/1999/xlink" viewBox="0 0 1000 1000">
  <defs>
    <style>
      .cls-1 {
        fill: url(#linear-gradient);
      }

      .cls-1, .cls-2 {
        stroke-width: 0px;
      }

      .cls-2 {
        fill: #fff;
      }
    </style>
    <linearGradient id="linear-gradient" x1="-91.51" y1="158.49" x2="1091.51" y2="841.51" gradientUnits="userSpaceOnUse">
      <stop offset="0" stop-color="#635eee"/>
      <stop offset="1" stop-color="#ff855a"/>
    </linearGradient>
  </defs>
  <rect class="cls-1" y="0" width="1000" height="1000"/>
  <g>
    <path class="cls-2" d="M576.26,499.51c0,37.2-10.72,72.01-29.37,101.28-1.76,2.74-3.62,5.48-5.53,8.13-1.91,2.69-3.87,5.29-5.92,7.83-10.38,13.07-22.52,24.72-36.07,34.56-2.79,2.06-5.63,4.01-8.57,5.87-2.89,1.91-5.87,3.72-8.91,5.43-22.27,12.68-47.58,20.95-74.7,23.64-5.97.59-12.09.88-18.6.88-102.3,0-184.68-80.04-187.57-182.25-.05-1.66-.05-3.52-.05-5.39l.05-4.6c-.1-182.45,138.18-345.11,271.86-397.05l60.89-23.64-30.4,57.86c-30.89,58.79-54.14,121.06-69.26,185.33,17.52,4.31,34.02,11.06,49.1,19.87-13.51,10.57-25.6,22.76-36.07,36.32-13.75-6.36-28.83-10.52-44.74-12.09l-26.97-2.64,5.34-26.53c10.72-53.21,26.63-105.25,47.48-155.37-94.18,64.57-178.32,187.15-178.27,317.9l-.05,4.65c0,1.32-.05,2.59,0,3.82,2.15,75.73,63.05,134.86,138.67,134.86,4.85,0,9.35-.2,13.71-.64,15.57-1.52,30.3-5.58,43.81-11.65,3.08-1.42,6.07-2.89,8.96-4.5,2.89-1.52,5.73-3.18,8.47-4.94,14-8.91,26.19-20.27,36.12-33.48,2.1-2.79,4.06-5.68,5.92-8.62,2.01-3.03,3.82-6.17,5.48-9.4,10.43-19.53,16.25-41.81,16.25-65.45s-5.63-45.09-15.66-64.32c9.25-14.29,21.59-26.43,36.07-35.54,18.16,28.93,28.54,63.2,28.54,99.86Z"/>
    <path class="cls-2" d="M799.03,500.49l-.05,4.55c.05,182.49-138.18,345.21-271.86,397.1l-60.94,23.64,30.4-57.86c30.89-58.79,54.14-121.01,69.26-185.33-17.52-4.31-34.02-11.06-49.1-19.83,13.51-10.57,25.65-22.81,36.08-36.37,13.75,6.36,28.83,10.52,44.79,12.09l26.92,2.69-5.34,26.53c-10.72,53.21-26.63,105.2-47.48,155.33,94.18-64.57,178.37-187.1,178.32-317.9,0-.88,0-1.81.05-2.79v-1.86c0-1.32,0-2.59-.05-3.87-2.15-75.63-63.05-134.82-138.62-134.82-4.85,0-9.35.2-13.75.64-15.57,1.52-30.3,5.58-43.81,11.65-3.03,1.42-6.02,2.89-8.91,4.5-2.89,1.52-5.73,3.18-8.47,4.99-14,8.91-26.24,20.27-36.12,33.48-2.1,2.79-4.11,5.63-5.92,8.57-2.01,3.08-3.82,6.22-5.48,9.45-10.43,19.48-16.25,41.76-16.25,65.4s5.63,45.13,15.71,64.37c-9.3,14.24-21.64,26.38-36.12,35.49-18.16-28.93-28.54-63.2-28.54-99.86s10.72-72.01,29.37-101.28c1.76-2.74,3.57-5.43,5.48-8.08,1.91-2.69,3.92-5.34,5.97-7.88,10.38-13.02,22.52-24.67,36.03-34.56,2.79-2.01,5.63-3.96,8.57-5.83,2.89-1.91,5.87-3.72,8.91-5.43,22.32-12.73,47.58-21,74.74-23.69,5.97-.59,12.09-.88,18.6-.88,102.25,0,184.63,80.09,187.57,182.3.05,1.66.05,3.52.05,5.34Z"/>
  </g>
</svg>