<?xml version="1.0" encoding="UTF-8"?>
<svg id="Layer_1" data-name="Layer 1" xmlns="http://www.w3.org/2000/svg" viewBox="0 0 611.54 1000">
  <defs>
    <style>
      .cls-1 {
        fill: #FF855A;
        stroke-width: 0px;
      }
    </style>
  </defs>
  <path class="cls-1" d="M305.72,1000C139.62,1000,5.81,869.96,1.1,703.96c-.09-2.78-.09-5.73-.09-8.69l.08-7.86C1,384.41,230.64,114.18,452.7,27.98L524.78,0l-35.97,68.44c-54.66,104.01-95.29,214.35-120.98,328.39,140.4,28.76,242.7,151.86,242.7,298.44,0,157.48-118.05,287.84-274.58,303.26-9.7.98-19.62,1.46-30.22,1.46ZM400.43,117.62c-77.66,45.43-151.8,113.28-210.7,194.02-84.34,115.63-130.76,249.08-130.73,375.77l-.08,7.87c0,2.34,0,4.68.06,6.95,3.82,134.54,112.2,239.86,246.74,239.86,8.64,0,16.64-.39,24.47-1.18,126.83-12.48,222.42-118.08,222.42-245.63s-95.59-233.14-222.34-245.62l-31.87-3.14,6.32-31.39c20.62-102.41,52.72-202.15,95.71-297.51Z"/>
</svg>