<?xml version="1.0" encoding="UTF-8"?>
<svg id="Layer_1" data-name="Layer 1" xmlns="http://www.w3.org/2000/svg" viewBox="0 0 611.54 1000">
  <defs>
    <style>
      .cls-1 {
        fill: #635EEE;
        stroke-width: 0px;
      }
    </style>
  </defs>
  <path class="cls-1" d="M86.76,1000l35.98-68.45c54.66-104.01,95.29-214.34,120.97-328.39C103.3,574.41,1.01,451.3,1.01,304.72,1.01,147.24,119.05,16.87,275.59,1.46c9.7-.98,19.61-1.46,30.22-1.46,166.1,0,299.91,130.04,304.63,296.03.09,2.77.09,5.73.09,8.69l-.08,7.85c.08,302.99-229.55,573.23-451.61,659.44l-72.09,27.99ZM305.81,57.92c-8.64,0-16.64.39-24.47,1.18-126.84,12.48-222.42,118.07-222.42,245.62s95.59,233.14,222.34,245.62l31.87,3.14-6.32,31.39c-20.62,102.42-52.72,202.15-95.7,297.5,77.65-45.44,151.8-113.28,210.7-194.03,84.34-115.63,130.76-249.08,130.73-375.77l.08-7.86c0-2.34,0-4.69-.06-6.95-3.82-134.54-112.2-239.86-246.74-239.86Z"/>
</svg>