<?xml version="1.0" encoding="UTF-8"?>
<svg id="Layer_1" data-name="Layer 1" xmlns="http://www.w3.org/2000/svg" viewBox="0 0 702.18 1000">
  <defs>
    <style>
      .cls-1 {
        fill: #ff845a;
      }

      .cls-1, .cls-2 {
        stroke-width: 0px;
      }

      .cls-2 {
        fill: #635eee;
      }
    </style>
  </defs>
  <path class="cls-2" d="M440.64,499.42c0,43.69-12.59,84.56-34.49,118.94-2.07,3.22-4.25,6.44-6.5,9.54-2.24,3.16-4.54,6.21-6.96,9.2-12.19,15.35-26.44,29.03-42.36,40.58-3.28,2.41-6.61,4.71-10.06,6.9-3.39,2.24-6.9,4.37-10.46,6.38-26.15,14.89-55.87,24.6-87.71,27.77-7.01.69-14.2,1.03-21.84,1.03C100.13,719.76,3.39,625.78,0,505.75c-.06-1.95-.06-4.14-.06-6.32l.06-5.4C-.11,279.78,162.27,88.76,319.25,27.76L390.75,0l-35.7,67.95c-36.27,69.04-63.57,142.16-81.33,217.64,20.58,5.06,39.95,12.99,57.65,23.34-15.86,12.42-30.06,26.73-42.36,42.65-16.15-7.47-33.86-12.36-52.54-14.2l-31.67-3.1,6.27-31.16c12.59-62.49,31.27-123.59,55.76-182.46C156.23,196.48,57.43,340.42,57.48,493.96l-.06,5.46c0,1.55-.06,3.05,0,4.48,2.53,88.93,74.03,158.37,162.84,158.37,5.69,0,10.98-.23,16.09-.75,18.28-1.78,35.58-6.55,51.44-13.68,3.62-1.67,7.13-3.39,10.52-5.29,3.39-1.78,6.73-3.74,9.94-5.81,16.44-10.46,30.75-23.8,42.42-39.32,2.47-3.28,4.77-6.67,6.96-10.12,2.36-3.56,4.48-7.24,6.44-11.04,12.24-22.94,19.08-49.09,19.08-76.86s-6.61-52.94-18.39-75.53c10.86-16.79,25.35-31.04,42.36-41.73,21.33,33.97,33.51,74.21,33.51,117.27Z"/>
  <path class="cls-1" d="M702.23,500.57l-.06,5.35c.06,214.3-162.27,405.38-319.24,466.31l-71.56,27.77,35.69-67.95c36.27-69.04,63.57-142.1,81.33-217.64-20.58-5.06-39.95-12.99-57.65-23.28,15.86-12.42,30.12-26.79,42.36-42.71,16.15,7.47,33.86,12.36,52.59,14.2l31.61,3.16-6.27,31.16c-12.59,62.49-31.27,123.53-55.76,182.4,110.59-75.82,209.46-219.71,209.4-373.3,0-1.04,0-2.13.06-3.28v-2.18c0-1.55,0-3.05-.06-4.54-2.53-88.81-74.03-158.31-162.78-158.31-5.69,0-10.98.23-16.15.75-18.28,1.78-35.58,6.55-51.44,13.68-3.56,1.67-7.07,3.39-10.46,5.29-3.39,1.78-6.73,3.74-9.94,5.86-16.44,10.46-30.81,23.8-42.42,39.32-2.47,3.28-4.83,6.61-6.96,10.06-2.36,3.62-4.48,7.3-6.44,11.09-12.24,22.88-19.08,49.03-19.08,76.8s6.61,53,18.45,75.59c-10.92,16.73-25.41,30.98-42.42,41.68-21.32-33.97-33.51-74.21-33.51-117.27s12.59-84.56,34.49-118.94c2.07-3.22,4.2-6.38,6.44-9.48,2.24-3.16,4.6-6.27,7.01-9.26,12.19-15.29,26.44-28.97,42.31-40.58,3.28-2.36,6.61-4.66,10.06-6.84,3.39-2.24,6.9-4.37,10.46-6.38,26.21-14.95,55.87-24.66,87.77-27.82,7.01-.69,14.2-1.03,21.84-1.03,120.08,0,216.81,94.04,220.26,214.07.06,1.95.06,4.14.06,6.27Z"/>
</svg>