<?xml version="1.0" encoding="UTF-8"?>
<svg id="Layer_1" data-name="Layer 1" xmlns="http://www.w3.org/2000/svg" viewBox="0 0 1500 670">
  <defs>
    <style>
      .cls-1 {
        fill: #ff845a;
      }

      .cls-1, .cls-2, .cls-3 {
        stroke-width: 0px;
      }

      .cls-2 {
        fill: #3c3066;
      }

      .cls-3 {
        fill: #635eee;
      }
    </style>
  </defs>
  <g>
    <path class="cls-2" d="M131.89,370.52h33.68v225.27h-31.71l-98.41-164.13v164.13H1.76v-225.27h32.7l97.43,162.82v-162.82Z"/>
    <path class="cls-2" d="M324.31,443.1v22.88c-9.81-17.32-30.75-26.82-52.97-26.82-43.16,0-75.5,34.68-75.5,80.14s34.33,80.41,74.22,80.41c23.5,0,44.44-12.11,54.25-29.73l32.03,29.73v-156.62h-32.03ZM275.58,569.62c-26.82,0-47.4-22.88-47.4-50.32s20.59-50.06,46.79-50.06c24.52,0,49.04,20.59,49.04,50.06s-22.88,50.32-48.42,50.32Z"/>
    <path class="cls-2" d="M477.49,443.1v26.81h-32.69v125.88h-32.04v-125.88h-27.46v-26.81h27.46v-57.22h32.04v57.22h32.69Z"/>
    <path class="cls-2" d="M502.01,387.52c0-11.77,10.13-20.6,21.91-20.6s21.9,8.83,21.9,20.6-9.81,20.6-21.9,20.6-21.91-8.83-21.91-20.6ZM507.9,595.79v-152.69h32.04v152.69h-32.04Z"/>
    <path class="cls-2" d="M691.32,443.1h34.66l-63.75,152.69h-30.41l-63.75-152.69h34.33l44.46,111.16,44.47-111.16Z"/>
    <path class="cls-2" d="M895.68,518.64c0-48.07-33.05-79.48-76.52-79.48s-78.77,31.41-78.77,79.79,34.64,80.76,78.77,80.76c26.33,0,51.25-11.22,65.69-32.25l-21.25-19.75c-8.48,14.09-25.14,22.27-43.12,22.27-24.52,0-42.85-12.77-47.1-37.6h121.63c.31-4.9.66-9.5.66-13.74ZM773.7,506.54c4.59-25.49,22.27-37.6,45.77-37.6s40.91,13.74,44.14,37.6h-89.9Z"/>
    <path class="cls-2" d="M970.22,565.06h90.57v30.73h-124.24v-225.27h33.67v194.54Z"/>
    <path class="cls-2" d="M1082.37,387.52c0-11.77,10.13-20.6,21.9-20.6s21.91,8.83,21.91,20.6-9.81,20.6-21.91,20.6-21.9-8.83-21.9-20.6ZM1088.25,595.79v-152.69h32.04v152.69h-32.04Z"/>
    <path class="cls-2" d="M1311.24,508.49v87.29h-32.04v-85.33c0-24.85-15.04-39.89-34.66-39.89s-44.14,11.44-44.14,43.16v82.06h-32.04v-152.69h32.04v23.54c8.83-18.96,33.35-27.46,49.69-27.46,38.58,0,61.47,25.83,61.14,69.31Z"/>
    <path class="cls-2" d="M1466.21,443.1v22.88c-10.12-17.32-32.03-26.82-52.62-26.82-41.53,0-75.86,32.07-75.86,80.45s34.33,80.1,75.5,80.1c21.6,0,42.85-9.15,52.97-26.46v67.02l32.03,29.73v-226.9h-32.03ZM1417.17,569.62c-26.15,0-47.4-20.9-47.4-49.7s21.25-50.67,47.4-50.67,48.73,19.97,48.73,50.67-25.18,49.7-48.73,49.7Z"/>
  </g>
  <g>
    <path class="cls-3" d="M784.7,193.54c0,16.93-4.88,32.77-13.36,46.09-.8,1.25-1.65,2.49-2.52,3.7-.87,1.23-1.76,2.41-2.7,3.56-4.72,5.95-10.25,11.25-16.42,15.73-1.27.94-2.56,1.83-3.9,2.67-1.31.87-2.67,1.69-4.05,2.47-10.13,5.77-21.65,9.53-33.99,10.76-2.72.27-5.5.4-8.46.4-46.55,0-84.04-36.42-85.36-82.94-.02-.76-.02-1.6-.02-2.45l.02-2.09c-.04-83.02,62.88-157.05,123.71-180.69l27.71-10.76-13.83,26.33c-14.06,26.75-24.64,55.09-31.52,84.34,7.97,1.96,15.48,5.03,22.34,9.04-6.15,4.81-11.65,10.36-16.42,16.53-6.26-2.9-13.12-4.79-20.36-5.5l-12.27-1.2,2.43-12.07c4.88-24.21,12.12-47.89,21.61-70.71-42.86,29.38-81.15,85.16-81.12,144.66l-.02,2.12c0,.6-.02,1.18,0,1.74.98,34.46,28.69,61.37,63.1,61.37,2.21,0,4.25-.09,6.24-.29,7.08-.69,13.79-2.54,19.94-5.3,1.4-.65,2.76-1.31,4.08-2.05,1.31-.69,2.61-1.45,3.85-2.25,6.37-4.05,11.92-9.22,16.44-15.24.96-1.27,1.85-2.58,2.7-3.92.91-1.38,1.74-2.81,2.49-4.28,4.74-8.89,7.4-19.02,7.4-29.78s-2.56-20.52-7.13-29.27c4.21-6.5,9.82-12.03,16.42-16.17,8.26,13.17,12.99,28.76,12.99,45.44Z"/>
    <path class="cls-1" d="M886.08,193.98l-.02,2.07c.02,83.05-62.88,157.09-123.71,180.71l-27.73,10.76,13.83-26.33c14.06-26.75,24.64-55.07,31.52-84.34-7.97-1.96-15.48-5.03-22.34-9.02,6.15-4.81,11.67-10.38,16.42-16.55,6.26,2.9,13.12,4.79,20.38,5.5l12.25,1.23-2.43,12.07c-4.88,24.21-12.12,47.87-21.61,70.68,42.86-29.38,81.17-85.14,81.15-144.66,0-.4,0-.82.02-1.27v-.85c0-.6,0-1.18-.02-1.76-.98-34.42-28.69-61.35-63.08-61.35-2.21,0-4.25.09-6.26.29-7.08.69-13.79,2.54-19.94,5.3-1.38.65-2.74,1.31-4.05,2.05-1.31.69-2.61,1.45-3.85,2.27-6.37,4.05-11.94,9.22-16.44,15.24-.96,1.27-1.87,2.56-2.7,3.9-.91,1.4-1.74,2.83-2.49,4.3-4.74,8.87-7.4,19-7.4,29.76s2.56,20.54,7.15,29.29c-4.23,6.48-9.85,12.01-16.44,16.15-8.26-13.17-12.99-28.76-12.99-45.44s4.88-32.77,13.36-46.09c.8-1.25,1.63-2.47,2.49-3.68.87-1.23,1.78-2.43,2.72-3.59,4.72-5.93,10.25-11.23,16.39-15.73,1.27-.91,2.56-1.8,3.9-2.65,1.31-.87,2.67-1.69,4.05-2.47,10.16-5.79,21.65-9.56,34.01-10.78,2.72-.27,5.5-.4,8.46-.4,46.53,0,84.02,36.44,85.36,82.96.02.76.02,1.6.02,2.43Z"/>
  </g>
</svg>