<?xml version="1.0" encoding="UTF-8"?>
<svg id="Layer_1" data-name="Layer 1" xmlns="http://www.w3.org/2000/svg" viewBox="0 0 2200 530">
  <defs>
    <style>
      .cls-1 {
        fill: #fff;
        stroke-width: 0px;
      }
    </style>
  </defs>
  <g>
    <path class="cls-1" d="M236.97,264.7c0,23.04-6.64,44.59-18.19,62.72-1.09,1.7-2.24,3.4-3.43,5.03-1.18,1.67-2.39,3.27-3.67,4.85-6.43,8.09-13.94,15.31-22.34,21.4-1.73,1.27-3.49,2.49-5.3,3.64-1.79,1.18-3.64,2.3-5.52,3.36-13.79,7.85-29.46,12.97-46.26,14.64-3.7.36-7.49.55-11.52.55-63.35,0-114.37-49.56-116.15-112.86-.03-1.03-.03-2.18-.03-3.33l.03-2.85c-.06-112.98,85.57-213.71,168.35-245.88L210.66,1.33l-18.82,35.83c-19.13,36.41-33.52,74.97-42.89,114.77,10.85,2.67,21.07,6.85,30.4,12.31-8.37,6.55-15.85,14.1-22.34,22.49-8.52-3.94-17.85-6.52-27.7-7.49l-16.7-1.64,3.3-16.43c6.64-32.95,16.49-65.18,29.4-96.22-58.32,39.98-110.43,115.89-110.4,196.86l-.03,2.88c0,.82-.03,1.61,0,2.36,1.33,46.9,39.04,83.52,85.87,83.52,3,0,5.79-.12,8.49-.39,9.64-.94,18.76-3.46,27.13-7.21,1.91-.88,3.76-1.79,5.55-2.79,1.79-.94,3.55-1.97,5.24-3.06,8.67-5.52,16.22-12.55,22.37-20.74,1.3-1.73,2.52-3.52,3.67-5.34,1.24-1.88,2.36-3.82,3.39-5.82,6.46-12.1,10.06-25.89,10.06-40.53s-3.49-27.92-9.7-39.83c5.73-8.85,13.37-16.37,22.34-22.01,11.25,17.92,17.67,39.14,17.67,61.84Z"/>
    <path class="cls-1" d="M374.92,265.3l-.03,2.82c.03,113.01-85.57,213.78-168.35,245.91l-37.74,14.64,18.82-35.83c19.13-36.41,33.52-74.94,42.89-114.77-10.85-2.67-21.07-6.85-30.4-12.28,8.37-6.55,15.88-14.13,22.34-22.52,8.52,3.94,17.85,6.52,27.74,7.49l16.67,1.67-3.3,16.43c-6.64,32.95-16.49,65.15-29.4,96.19,58.32-39.98,110.46-115.86,110.43-196.86,0-.55,0-1.12.03-1.73v-1.15c0-.82,0-1.61-.03-2.39-1.33-46.84-39.04-83.49-85.84-83.49-3,0-5.79.12-8.52.39-9.64.94-18.76,3.46-27.13,7.22-1.88.88-3.73,1.79-5.52,2.79-1.79.94-3.55,1.97-5.24,3.09-8.67,5.52-16.25,12.55-22.37,20.74-1.3,1.73-2.55,3.49-3.67,5.3-1.24,1.91-2.36,3.85-3.39,5.85-6.46,12.06-10.06,25.86-10.06,40.5s3.49,27.95,9.73,39.86c-5.76,8.82-13.4,16.34-22.37,21.98-11.25-17.92-17.67-39.14-17.67-61.84s6.64-44.59,18.19-62.72c1.09-1.7,2.21-3.36,3.4-5,1.18-1.67,2.42-3.3,3.7-4.88,6.43-8.06,13.94-15.28,22.31-21.4,1.73-1.24,3.49-2.46,5.3-3.61,1.79-1.18,3.64-2.3,5.52-3.36,13.82-7.88,29.46-13,46.29-14.67,3.7-.36,7.49-.55,11.52-.55,63.32,0,114.34,49.59,116.15,112.89.03,1.03.03,2.18.03,3.3Z"/>
  </g>
  <g>
    <path class="cls-1" d="M648.76,125.32h38.12v255h-35.9l-111.4-185.79v185.79h-38.12V125.32h37.01l110.29,184.31V125.32Z"/>
    <path class="cls-1" d="M866.57,207.47v25.9c-11.1-19.6-34.81-30.36-59.96-30.36-48.86,0-85.47,39.26-85.47,90.72s38.86,91.02,84.02,91.02c26.61,0,50.31-13.7,61.41-33.66l36.26,33.66v-177.28h-36.26ZM811.41,350.69c-30.36,0-53.66-25.9-53.66-56.96s23.3-56.66,52.96-56.66c27.76,0,55.51,23.3,55.51,56.66s-25.9,56.96-54.81,56.96Z"/>
    <path class="cls-1" d="M1039.97,207.48v30.35h-37.01v142.49h-36.27v-142.49h-31.09v-30.35h31.09v-64.77h36.27v64.77h37.01Z"/>
    <path class="cls-1" d="M1067.73,144.56c0-13.33,11.47-23.32,24.8-23.32s24.79,9.99,24.79,23.32-11.1,23.32-24.79,23.32-24.8-9.99-24.8-23.32ZM1074.39,380.31v-172.84h36.27v172.84h-36.27Z"/>
    <path class="cls-1" d="M1282.02,207.48h39.23l-72.17,172.84h-34.42l-72.17-172.84h38.86l50.33,125.83,50.33-125.83Z"/>
    <path class="cls-1" d="M1513.35,292.98c0-54.41-37.41-89.97-86.62-89.97s-89.17,35.56-89.17,90.32,39.21,91.42,89.17,91.42c29.81,0,58.01-12.7,74.36-36.51l-24.05-22.35c-9.6,15.95-28.46,25.2-48.81,25.2-27.76,0-48.51-14.45-53.31-42.56h137.68c.35-5.55.75-10.75.75-15.55ZM1375.27,279.28c5.2-28.86,25.21-42.56,51.81-42.56s46.31,15.55,49.96,42.56h-101.77Z"/>
    <path class="cls-1" d="M1597.72,345.52h102.52v34.79h-140.64V125.32h38.12v220.21Z"/>
    <path class="cls-1" d="M1724.67,144.56c0-13.33,11.47-23.32,24.79-23.32s24.8,9.99,24.8,23.32-11.11,23.32-24.8,23.32-24.79-9.99-24.79-23.32ZM1731.33,380.31v-172.84h36.27v172.84h-36.27Z"/>
    <path class="cls-1" d="M1983.75,281.5v98.82h-36.27v-96.6c0-28.13-17.02-45.15-39.23-45.15s-49.96,12.95-49.96,48.85v92.89h-36.27v-172.84h36.27v26.65c9.99-21.47,37.75-31.09,56.25-31.09,43.68,0,69.58,29.24,69.21,78.46Z"/>
    <path class="cls-1" d="M2159.17,207.47v25.9c-11.45-19.6-36.26-30.36-59.56-30.36-47.01,0-85.87,36.31-85.87,91.07s38.86,90.67,85.47,90.67c24.45,0,48.51-10.35,59.96-29.96v75.86l36.26,33.66V207.47h-36.26ZM2103.66,350.69c-29.61,0-53.66-23.65-53.66-56.26s24.05-57.36,53.66-57.36,55.16,22.6,55.16,57.36-28.51,56.26-55.16,56.26Z"/>
  </g>
</svg>