<?xml version="1.0" encoding="UTF-8"?>
<svg id="Layer_1" data-name="Layer 1" xmlns="http://www.w3.org/2000/svg" viewBox="0 0 2200 530">
  <defs>
    <style>
      .cls-1 {
        fill: #ff845a;
      }

      .cls-1, .cls-2, .cls-3 {
        stroke-width: 0px;
      }

      .cls-2 {
        fill: #3c3066;
      }

      .cls-3 {
        fill: #635eee;
      }
    </style>
  </defs>
  <g>
    <path class="cls-3" d="M239.16,264.7c0,22.98-6.62,44.48-18.14,62.56-1.09,1.69-2.24,3.39-3.42,5.02-1.18,1.66-2.39,3.27-3.66,4.84-6.41,8.07-13.91,15.27-22.28,21.35-1.72,1.27-3.48,2.48-5.29,3.63-1.78,1.18-3.63,2.3-5.5,3.36-13.76,7.83-29.39,12.94-46.14,14.6-3.69.36-7.47.54-11.49.54-63.19,0-114.08-49.44-115.86-112.57-.03-1.03-.03-2.18-.03-3.33l.03-2.84c-.06-112.69,85.35-213.17,167.92-245.25L212.92,2l-18.78,35.74c-19.08,36.31-33.44,74.78-42.78,114.48,10.82,2.66,21.01,6.83,30.33,12.28-8.34,6.53-15.81,14.06-22.28,22.44-8.5-3.93-17.81-6.5-27.63-7.47l-16.66-1.63,3.3-16.39c6.62-32.87,16.45-65.01,29.33-95.97-58.17,39.88-110.15,115.6-110.12,196.36l-.03,2.87c0,.82-.03,1.6,0,2.36,1.33,46.78,38.94,83.3,85.65,83.3,2.99,0,5.77-.12,8.47-.39,9.61-.94,18.72-3.45,27.06-7.2,1.9-.88,3.75-1.78,5.53-2.78,1.78-.94,3.54-1.97,5.23-3.05,8.65-5.5,16.18-12.52,22.31-20.68,1.3-1.72,2.51-3.51,3.66-5.32,1.24-1.87,2.36-3.81,3.39-5.81,6.44-12.06,10.04-25.82,10.04-40.43s-3.48-27.85-9.68-39.73c5.71-8.83,13.33-16.33,22.28-21.95,11.22,17.87,17.63,39.04,17.63,61.68Z"/>
    <path class="cls-1" d="M376.76,265.3l-.03,2.81c.03,112.72-85.35,213.23-167.92,245.28l-37.64,14.6,18.78-35.74c19.08-36.31,33.44-74.75,42.78-114.48-10.82-2.66-21.01-6.83-30.33-12.25,8.34-6.53,15.84-14.09,22.28-22.47,8.5,3.93,17.81,6.5,27.66,7.47l16.63,1.66-3.3,16.39c-6.62,32.87-16.45,64.98-29.33,95.94,58.17-39.88,110.18-115.57,110.15-196.36,0-.54,0-1.12.03-1.72v-1.15c0-.82,0-1.6-.03-2.39-1.33-46.72-38.94-83.27-85.62-83.27-2.99,0-5.77.12-8.5.39-9.61.94-18.72,3.45-27.06,7.2-1.87.88-3.72,1.78-5.5,2.78-1.78.94-3.54,1.97-5.23,3.08-8.65,5.5-16.21,12.52-22.31,20.68-1.3,1.72-2.54,3.48-3.66,5.29-1.24,1.9-2.36,3.84-3.39,5.84-6.44,12.03-10.04,25.79-10.04,40.4s3.48,27.88,9.71,39.76c-5.74,8.8-13.36,16.3-22.31,21.92-11.22-17.87-17.63-39.04-17.63-61.68s6.62-44.48,18.14-62.56c1.09-1.69,2.21-3.36,3.39-4.99,1.18-1.66,2.42-3.3,3.69-4.87,6.41-8.04,13.91-15.24,22.25-21.35,1.72-1.24,3.48-2.45,5.29-3.6,1.78-1.18,3.63-2.3,5.5-3.36,13.79-7.86,29.39-12.97,46.17-14.64,3.69-.36,7.47-.54,11.49-.54,63.16,0,114.05,49.47,115.86,112.6.03,1.03.03,2.18.03,3.3Z"/>
  </g>
  <g>
    <path class="cls-2" d="M649.91,125.67h38.02v254.35h-35.81l-111.12-185.32v185.32h-38.02V125.67h36.92l110.01,183.84V125.67Z"/>
    <path class="cls-2" d="M867.16,207.61v25.84c-11.07-19.55-34.72-30.28-59.81-30.28-48.74,0-85.25,39.16-85.25,90.49s38.76,90.79,83.8,90.79c26.54,0,50.18-13.67,61.26-33.57l36.16,33.57v-176.83h-36.16ZM812.14,350.48c-30.28,0-53.52-25.84-53.52-56.82s23.25-56.52,52.83-56.52c27.68,0,55.37,23.25,55.37,56.52s-25.84,56.82-54.67,56.82Z"/>
    <path class="cls-2" d="M1040.12,207.62v30.27h-36.92v142.13h-36.18v-142.13h-31.01v-30.27h31.01v-64.6h36.18v64.6h36.92Z"/>
    <path class="cls-2" d="M1067.81,144.87c0-13.29,11.44-23.26,24.73-23.26s24.73,9.97,24.73,23.26-11.08,23.26-24.73,23.26-24.73-9.97-24.73-23.26ZM1074.45,380.02v-172.4h36.18v172.4h-36.18Z"/>
    <path class="cls-2" d="M1281.55,207.62h39.13l-71.98,172.4h-34.33l-71.98-172.4h38.76l50.2,125.52,50.21-125.52Z"/>
    <path class="cls-2" d="M1512.3,292.91c0-54.27-37.31-89.74-86.4-89.74s-88.94,35.47-88.94,90.09,39.11,91.19,88.94,91.19c29.73,0,57.86-12.67,74.18-36.41l-23.99-22.3c-9.58,15.91-28.38,25.14-48.69,25.14-27.68,0-48.39-14.42-53.18-42.45h137.33c.35-5.54.75-10.72.75-15.51ZM1374.57,279.24c5.19-28.78,25.14-42.45,51.68-42.45s46.19,15.51,49.83,42.45h-101.51Z"/>
    <path class="cls-2" d="M1596.46,345.32h102.26v34.7h-140.28V125.67h38.02v219.65Z"/>
    <path class="cls-2" d="M1723.09,144.87c0-13.29,11.44-23.26,24.73-23.26s24.74,9.97,24.74,23.26-11.08,23.26-24.74,23.26-24.73-9.97-24.73-23.26ZM1729.73,380.02v-172.4h36.18v172.4h-36.18Z"/>
    <path class="cls-2" d="M1981.5,281.46v98.56h-36.17v-96.35c0-28.06-16.98-45.04-39.13-45.04s-49.83,12.92-49.83,48.73v92.66h-36.18v-172.4h36.18v26.58c9.97-21.41,37.65-31.01,56.11-31.01,43.56,0,69.4,29.16,69.03,78.26Z"/>
    <path class="cls-2" d="M2156.48,207.61v25.84c-11.42-19.55-36.16-30.28-59.41-30.28-46.89,0-85.65,36.21-85.65,90.84s38.76,90.44,85.25,90.44c24.39,0,48.39-10.33,59.81-29.88v75.67l36.16,33.57V207.61h-36.16ZM2101.11,350.48c-29.53,0-53.52-23.59-53.52-56.12s23.99-57.22,53.52-57.22,55.02,22.55,55.02,57.22-28.43,56.12-55.02,56.12Z"/>
  </g>
</svg>