<svg xmlns="http://www.w3.org/2000/svg" width="300px" height="auto" viewBox="0 0 50 50">
    <g>
        <path style="fill: #635eee" d="M20.03,20.06c0,1.31-.38,2.54-1.04,3.58-.06.1-.13.19-.2.29-.07.1-.14.19-.21.28-.37.46-.8.87-1.27,1.22-.1.07-.2.14-.3.21-.1.07-.21.13-.31.19-.79.45-1.68.74-2.64.83-.21.02-.43.03-.66.03-3.61,0-6.52-2.83-6.62-6.44,0-.06,0-.12,0-.19v-.16c0-6.44,4.88-12.19,9.6-14.02l2.15-.83-1.07,2.04c-1.09,2.08-1.91,4.28-2.45,6.54.62.15,1.2.39,1.73.7-.48.37-.9.8-1.27,1.28-.49-.22-1.02-.37-1.58-.43l-.95-.09.19-.94c.38-1.88.94-3.72,1.68-5.49-3.33,2.28-6.3,6.61-6.3,11.23v.16s0,.09,0,.13c.08,2.67,2.23,4.76,4.9,4.76.17,0,.33,0,.48-.02.55-.05,1.07-.2,1.55-.41.11-.05.21-.1.32-.16.1-.05.2-.11.3-.17.49-.31.92-.72,1.28-1.18.07-.1.14-.2.21-.3.07-.11.13-.22.19-.33.37-.69.57-1.48.57-2.31s-.2-1.59-.55-2.27c.33-.5.76-.93,1.27-1.26.64,1.02,1.01,2.23,1.01,3.53Z"></path>
        <path style="fill: #ff845a" d="M26.9,21.09v.16c0,6.44-4.88,12.19-9.6,14.02l-2.15.83,1.07-2.04c1.09-2.08,1.91-4.27,2.45-6.54-.62-.15-1.2-.39-1.73-.7.48-.37.91-.81,1.27-1.28.49.22,1.02.37,1.58.43l.95.1-.19.94c-.38,1.88-.94,3.71-1.68,5.49,3.33-2.28,6.3-6.61,6.3-11.23,0-.03,0-.06,0-.1v-.07s0-.09,0-.14c-.08-2.67-2.23-4.76-4.9-4.76-.17,0-.33,0-.49.02-.55.05-1.07.2-1.55.41-.11.05-.21.1-.31.16-.1.05-.2.11-.3.18-.49.31-.93.72-1.28,1.18-.07.1-.15.2-.21.3-.07.11-.13.22-.19.33-.37.69-.57,1.47-.57,2.31s.2,1.59.55,2.27c-.33.5-.76.93-1.28,1.25-.64-1.02-1.01-2.23-1.01-3.53s.38-2.54,1.04-3.58c.06-.1.13-.19.19-.29.07-.1.14-.19.21-.28.37-.46.8-.87,1.27-1.22.1-.07.2-.14.3-.21.1-.07.21-.13.31-.19.79-.45,1.68-.74,2.64-.84.21-.02.43-.03.66-.03,3.61,0,6.52,2.83,6.62,6.44,0,.06,0,.12,0,.19Z"></path>
    </g>
    <g>
        <path style="#3c3066" d="M30.52,767.11h2.17v14.54h-2.05l-6.35-10.59v10.59h-2.17v-14.54h2.11l6.29,10.51v-10.51Z"></path>
        <path style="#3c3066" d="M94.94,771.8v1.48c-.63-1.12-1.98-1.73-3.42-1.73-2.79,0-4.87,2.24-4.87,5.17s2.22,5.19,4.79,5.19c1.52,0,2.87-.78,3.5-1.92l2.07,1.92v-10.11h-2.07ZM91.79,779.96c-1.73,0-3.06-1.48-3.06-3.25s1.33-3.23,3.02-3.23c1.58,0,3.17,1.33,3.17,3.23s-1.48,3.25-3.13,3.25Z"></path>
        <path style="#3c3066" d="M104.82,771.8v1.73h-2.11v8.13h-2.07v-8.13h-1.77v-1.73h1.77v-3.69h2.07v3.69h2.11Z"></path>
        <path style="#3c3066" d="M106.41,768.21c0-.76.65-1.33,1.41-1.33s1.41.57,1.41,1.33-.63,1.33-1.41,1.33-1.41-.57-1.41-1.33ZM106.79,781.65v-9.86h2.07v9.86h-2.07Z"></path>
        <path style="#3c3066" d="M118.63,771.8h2.24l-4.12,9.86h-1.96l-4.12-9.86h2.22l2.87,7.18,2.87-7.18Z"></path>
        <path style="#3c3066" d="M131.82,776.67c0-3.1-2.13-5.13-4.94-5.13s-5.08,2.03-5.08,5.15,2.24,5.21,5.08,5.21c1.7,0,3.31-.72,4.24-2.08l-1.37-1.27c-.55.91-1.62,1.44-2.78,1.44-1.58,0-2.77-.82-3.04-2.43h7.85c.02-.32.04-.61.04-.89ZM123.94,775.89c.3-1.65,1.44-2.43,2.95-2.43s2.64.89,2.85,2.43h-5.8Z"></path>
        <path style="#3c3066" d="M136.63,779.67h5.85v1.98h-8.02v-14.54h2.17v12.56Z"></path>
        <path style="#3c3066" d="M143.87,768.21c0-.76.65-1.33,1.41-1.33s1.41.57,1.41,1.33-.63,1.33-1.41,1.33-1.41-.57-1.41-1.33ZM144.25,781.65v-9.86h2.07v9.86h-2.07Z"></path>
        <path style="#3c3066" d="M158.64,776.02v5.63h-2.07v-5.51c0-1.6-.97-2.57-2.24-2.57s-2.85.74-2.85,2.79v5.3h-2.07v-9.86h2.07v1.52c.57-1.22,2.15-1.77,3.21-1.77,2.49,0,3.97,1.67,3.95,4.47Z"></path>
        <path style="#3c3066" d="M168.65,771.8v1.48c-.65-1.12-2.07-1.73-3.4-1.73-2.68,0-4.9,2.07-4.9,5.19s2.22,5.17,4.87,5.17c1.39,0,2.77-.59,3.42-1.71v4.33l2.07,1.92v-14.65h-2.07ZM165.48,779.96c-1.69,0-3.06-1.35-3.06-3.21s1.37-3.27,3.06-3.27,3.15,1.29,3.15,3.27-1.63,3.21-3.15,3.21Z"></path>
    </g>
</svg>